<svg xmlns="http://www.w3.org/2000/svg" xmlns:xlink="http://www.w3.org/1999/xlink" width="802" height="680" fill="#000" fill-opacity="1" stroke="#000" stroke-dasharray="none" stroke-dashoffset="0" stroke-linecap="square" stroke-linejoin="miter" stroke-miterlimit="10" stroke-opacity="1" stroke-width="1" color-interpolation="auto" color-rendering="auto" font-family="'Dialog'" font-size="12" font-style="normal" font-weight="normal" image-rendering="auto" shape-rendering="auto" text-rendering="auto"><g><defs id="defs1"><clipPath id="clipPath1" clipPathUnits="userSpaceOnUse"><path d="M0 0 L802 0 L802 680 L0 680 L0 0 Z"/></clipPath><clipPath id="clipPath2" clipPathUnits="userSpaceOnUse"><path d="M1 -155 L803 -155 L803 525 L1 525 L1 -155 Z"/></clipPath></defs><g fill="#fff" stroke="#fff" shape-rendering="geometricPrecision" text-rendering="geometricPrecision" transform="translate(-1,155)"><rect width="802" height="680" x="1" y="-155" stroke="none" clip-path="url(#clipPath2)"/></g><g fill="#F5F5F5" stroke="#F5F5F5" shape-rendering="geometricPrecision" text-rendering="geometricPrecision" transform="matrix(1,0,0,1,-1,155)"><rect width="542" height="508.14" x="139" y="-80.14" stroke="none" clip-path="url(#clipPath2)"/><rect width="542" height="29.14" x="139" y="-80.14" fill="#EBEBEB" stroke="none" clip-path="url(#clipPath2)"/></g><g stroke-linecap="butt" stroke-miterlimit="1.45" font-family="'Source Sans Pro'" font-size="20" shape-rendering="geometricPrecision" text-rendering="geometricPrecision" transform="matrix(1,0,0,1,-1,155)"><text x="375.73" y="-58.46" stroke="none" clip-path="url(#clipPath2)" xml:space="preserve">Account</text><rect width="542" height="508.14" x="139" y="-80.14" fill="none" stroke-dasharray="6 2" clip-path="url(#clipPath2)"/></g><g fill="#E0E0E0" stroke="#E0E0E0" shape-rendering="geometricPrecision" text-rendering="geometricPrecision" transform="matrix(1,0,0,1,-1,155)"><rect width="133" height="30" x="533" y="15" stroke="none" clip-path="url(#clipPath2)"/></g><g stroke-linecap="butt" stroke-miterlimit="1.45" shape-rendering="geometricPrecision" text-rendering="geometricPrecision" transform="matrix(1,0,0,1,-1,155)"><rect width="133" height="30" x="533" y="15" fill="none" clip-path="url(#clipPath2)"/><text x="549.254" y="34.977" stroke="none" clip-path="url(#clipPath2)" font-family="'Source Sans Pro'" font-size="14" xml:space="preserve">public crypto key</text></g><g fill="#333" stroke="#333" shape-rendering="geometricPrecision" text-rendering="geometricPrecision" transform="matrix(1,0,0,1,-1,155)"><rect width="133" height="30" x="533" y="45" stroke="none" clip-path="url(#clipPath2)"/><rect width="133" height="30" x="533" y="45" fill="none" stroke-linecap="butt" stroke-miterlimit="1.45" clip-path="url(#clipPath2)"/></g><g fill="#fff" stroke="#fff" stroke-linecap="butt" stroke-miterlimit="1.45" font-family="'Source Sans Pro'" font-size="14" shape-rendering="geometricPrecision" text-rendering="geometricPrecision"><text x="546.804" y="64.977" stroke="none" clip-path="url(#clipPath2)" transform="matrix(1,0,0,1,-1,155)" xml:space="preserve">private crypto key</text></g><g fill="#9FC" stroke="#9FC" shape-rendering="geometricPrecision" text-rendering="geometricPrecision" transform="matrix(1,0,0,1,-1,155)"><rect width="220" height="76" x="204" y="136" stroke="none" clip-path="url(#clipPath2)" rx="4" ry="4"/></g><g stroke-linecap="butt" stroke-miterlimit="1.45" shape-rendering="geometricPrecision" text-rendering="geometricPrecision" transform="matrix(1,0,0,1,-1,155)"><rect width="220" height="76" x="204" y="136" fill="none" clip-path="url(#clipPath2)" rx="4" ry="4"/><text x="275.528" y="152.58" stroke="none" clip-path="url(#clipPath2)" font-family="'Source Sans Pro'" font-size="14" xml:space="preserve">type: contact</text><text x="229.797" y="170.178" stroke="none" clip-path="url(#clipPath2)" font-family="'Source Sans Pro'" font-size="14" xml:space="preserve">contact: @ab29ci0=.ed25519</text><text x="271.461" y="187.776" stroke="none" clip-path="url(#clipPath2)" font-family="'Source Sans Pro'" font-size="14" xml:space="preserve">following: true</text><text x="259.106" y="205.374" stroke="none" clip-path="url(#clipPath2)" font-family="'Source Sans Pro'" font-size="14" xml:space="preserve">signature: 59c1029</text></g><g fill="#9FC" stroke="#9FC" shape-rendering="geometricPrecision" text-rendering="geometricPrecision" transform="matrix(1,0,0,1,-1,155)"><rect width="220" height="76" x="204" y="15" stroke="none" clip-path="url(#clipPath2)" rx="4" ry="4"/></g><g stroke-linecap="butt" stroke-miterlimit="1.45" shape-rendering="geometricPrecision" text-rendering="geometricPrecision" transform="matrix(1,0,0,1,-1,155)"><rect width="220" height="76" x="204" y="15" fill="none" clip-path="url(#clipPath2)" rx="4" ry="4"/><text x="284.873" y="40.379" stroke="none" clip-path="url(#clipPath2)" font-family="'Source Sans Pro'" font-size="14" xml:space="preserve">type: post</text><text x="241.109" y="57.977" stroke="none" clip-path="url(#clipPath2)" font-family="'Source Sans Pro'" font-size="14" xml:space="preserve">content: &quot;My first post :)&quot;</text><text x="261.584" y="75.575" stroke="none" clip-path="url(#clipPath2)" font-family="'Source Sans Pro'" font-size="14" xml:space="preserve">signature: 29aff91</text></g><g fill="#9FC" stroke="#9FC" shape-rendering="geometricPrecision" text-rendering="geometricPrecision" transform="matrix(1,0,0,1,-1,155)"><rect width="220" height="76" x="204" y="257" stroke="none" clip-path="url(#clipPath2)" rx="4" ry="4"/></g><g stroke-linecap="butt" stroke-miterlimit="1.45" shape-rendering="geometricPrecision" text-rendering="geometricPrecision" transform="matrix(1,0,0,1,-1,155)"><rect width="220" height="76" x="204" y="257" fill="none" clip-path="url(#clipPath2)" rx="4" ry="4"/><text x="284.873" y="282.379" stroke="none" clip-path="url(#clipPath2)" font-family="'Source Sans Pro'" font-size="14" xml:space="preserve">type: post</text><text x="236.93" y="299.977" stroke="none" clip-path="url(#clipPath2)" font-family="'Source Sans Pro'" font-size="14" xml:space="preserve">content: &quot;It&apos;s a sunny day&quot;</text><text x="256.551" y="317.575" stroke="none" clip-path="url(#clipPath2)" font-family="'Source Sans Pro'" font-size="14" xml:space="preserve">signature: 10afc18d</text><text x="168.968" y="58.688" stroke="none" clip-path="url(#clipPath2)" font-family="'Source Sans Pro'" font-size="16" xml:space="preserve">1st</text><text x="166.208" y="179.688" stroke="none" clip-path="url(#clipPath2)" font-family="'Source Sans Pro'" font-size="16" xml:space="preserve">2nd</text><text x="167.808" y="300.688" stroke="none" clip-path="url(#clipPath2)" font-family="'Source Sans Pro'" font-size="16" xml:space="preserve">3rd</text><text x="290.36" y="-3.39" stroke="none" clip-path="url(#clipPath2)" font-family="'Source Sans Pro'" font-size="20" font-weight="bold" xml:space="preserve">Diary</text><text x="564.23" y="-3.39" stroke="none" clip-path="url(#clipPath2)" font-family="'Source Sans Pro'" font-size="20" font-weight="bold" xml:space="preserve">Identity</text><path fill="none" stroke="gray" stroke-dasharray="6 2" d="M567.75 75 L567.75 151.25 L545 174 L432 174" clip-path="url(#clipPath2)"/><path fill="gray" stroke="none" stroke-dasharray="6 2" d="M424 174 L436 179 L433 174 L436 169 Z" clip-path="url(#clipPath2)"/><text x="504.418" y="157.764" stroke="none" clip-path="url(#clipPath2)" font-family="'Source Sans Pro'" font-size="14" xml:space="preserve">signed</text><path fill="none" d="M314 135.9561 L314 99" clip-path="url(#clipPath2)"/><path stroke="none" d="M314 91 L309 103 L314 100 L319 103 Z" clip-path="url(#clipPath2)"/><text x="318" y="118.477" stroke="none" clip-path="url(#clipPath2)" font-family="'Source Sans Pro'" font-size="14" xml:space="preserve">references</text><path fill="none" stroke="gray" stroke-dasharray="6 2" d="M532.9734 63.5 L432 63.5" clip-path="url(#clipPath2)"/><path fill="gray" stroke="none" stroke-dasharray="6 2" d="M424 63.5 L436 68.5 L433 63.5 L436 58.5 Z" clip-path="url(#clipPath2)"/><path fill="none" stroke="gray" stroke-dasharray="6 2" d="M631.25 75 L631.25 272.75 L609 295 L432 295" clip-path="url(#clipPath2)"/><path fill="gray" stroke="none" stroke-dasharray="6 2" d="M424 295 L436 300 L433 295 L436 290 Z" clip-path="url(#clipPath2)"/><path fill="none" d="M314 256.9561 L314 220" clip-path="url(#clipPath2)"/><path stroke="none" d="M314 212 L309 224 L314 221 L319 224 Z" clip-path="url(#clipPath2)"/><text x="318" y="239.477" stroke="none" clip-path="url(#clipPath2)" font-family="'Source Sans Pro'" font-size="14" xml:space="preserve">references</text></g></g></svg>